<svg width="168" height="26" viewBox="0 0 168 26" fill="none" xmlns="http://www.w3.org/2000/svg">
<path d="M11.32 6.292C14.008 6.292 16.4187 6.804 18.552 7.828C20.6853 8.852 21.752 10.6547 21.752 13.236V24.5H18.2L17.752 21.14C17.4533 21.7587 16.824 22.356 15.864 22.932C14.9253 23.4867 13.784 23.9347 12.44 24.276C11.1173 24.6173 9.752 24.788 8.344 24.788C6.70133 24.788 4.92 24.4467 3 23.764C1.08 23.0813 0.12 21.588 0.12 19.284C0.12 17.7693 0.536 16.6173 1.368 15.828C2.2 15.0173 3.10667 14.4947 4.088 14.26C5.06933 14.004 5.944 13.876 6.712 13.876C10.4027 13.876 12.952 13.8547 14.36 13.812C15.7893 13.748 16.7173 13.6307 17.144 13.46C17.5707 13.268 17.7947 12.9373 17.816 12.468V12.18C17.7947 11.6467 17.4747 11.156 16.856 10.708C16.2587 10.2387 15.4587 9.86533 14.456 9.588C13.4533 9.31067 12.3867 9.172 11.256 9.172C9.336 9.12933 7.704 9.396 6.36 9.972C5.016 10.548 4.344 11.476 4.344 12.756H0.312C0.312 11.1133 0.898667 9.812 2.072 8.852C3.24533 7.892 4.664 7.23067 6.328 6.868C7.992 6.484 9.656 6.292 11.32 6.292ZM9.88 21.268C12.8667 21.268 14.9253 20.66 16.056 19.444C17.208 18.228 17.784 16.852 17.784 15.316C16.7387 16.1053 14.6053 16.5 11.384 16.5C9.61333 16.5 8.23733 16.5533 7.256 16.66C6.296 16.7667 5.58133 16.98 5.112 17.3C4.64267 17.5987 4.38667 18.0467 4.344 18.644C4.408 19.4547 4.84533 20.0947 5.656 20.564C6.488 21.0333 7.896 21.268 9.88 21.268ZM45.5555 15.38C45.5555 17.1507 45.1928 18.7507 44.4675 20.18C43.7635 21.6093 42.7608 22.74 41.4595 23.572C40.1795 24.3827 38.7182 24.788 37.0755 24.788C33.0862 24.788 30.1848 23.988 28.3715 22.388L27.9555 24.404H24.6275V0.883999H28.6275V9.14C30.5688 7.30533 33.3848 6.388 37.0755 6.388C38.8035 6.388 40.3075 6.804 41.5875 7.636C42.8675 8.468 43.8382 9.56667 44.4995 10.932C45.1822 12.2973 45.5342 13.748 45.5555 15.284V15.348V15.38ZM34.8355 22.004C36.2435 22.004 37.4275 21.6733 38.3875 21.012C39.3688 20.3293 40.1048 19.4867 40.5955 18.484C41.0862 17.46 41.3422 16.4147 41.3635 15.348C41.3422 14.4307 41.0862 13.5027 40.5955 12.564C40.1048 11.604 39.3688 10.804 38.3875 10.164C37.4062 9.524 36.2222 9.204 34.8355 9.204C33.6195 9.204 32.5315 9.50267 31.5715 10.1C30.6328 10.676 29.9075 11.4547 29.3955 12.436C28.8835 13.4173 28.6275 14.4947 28.6275 15.668C28.6275 16.7347 28.8835 17.7587 29.3955 18.74C29.9288 19.7 30.6648 20.4893 31.6035 21.108C32.5422 21.7053 33.6195 22.004 34.8355 22.004ZM51.876 9.748C52.6867 8.89467 53.7 8.244 54.916 7.796C56.132 7.32667 57.572 7.00667 59.236 6.836V10.708H55.716C54.2227 10.708 53.22 11.124 52.708 11.956C52.2173 12.788 51.9613 13.94 51.94 15.412V24.5H47.94V7.06H51.268L51.876 9.748ZM72.8513 6.292C75.5393 6.292 77.9499 6.804 80.0833 7.828C82.2166 8.852 83.2833 10.6547 83.2833 13.236V24.5H79.7313L79.2833 21.14C78.9846 21.7587 78.3553 22.356 77.3953 22.932C76.4566 23.4867 75.3153 23.9347 73.9713 24.276C72.6486 24.6173 71.2833 24.788 69.8753 24.788C68.2326 24.788 66.4513 24.4467 64.5312 23.764C62.6113 23.0813 61.6513 21.588 61.6513 19.284C61.6513 17.7693 62.0673 16.6173 62.8993 15.828C63.7313 15.0173 64.6379 14.4947 65.6193 14.26C66.6006 14.004 67.4753 13.876 68.2433 13.876C71.9339 13.876 74.4833 13.8547 75.8913 13.812C77.3206 13.748 78.2486 13.6307 78.6753 13.46C79.1019 13.268 79.3259 12.9373 79.3472 12.468V12.18C79.3259 11.6467 79.0059 11.156 78.3873 10.708C77.7899 10.2387 76.9899 9.86533 75.9873 9.588C74.9846 9.31067 73.9179 9.172 72.7873 9.172C70.8673 9.12933 69.2353 9.396 67.8913 9.972C66.5473 10.548 65.8753 11.476 65.8753 12.756H61.8433C61.8433 11.1133 62.4299 9.812 63.6033 8.852C64.7766 7.892 66.1953 7.23067 67.8593 6.868C69.5233 6.484 71.1873 6.292 72.8513 6.292ZM71.4113 21.268C74.3979 21.268 76.4566 20.66 77.5873 19.444C78.7393 18.228 79.3153 16.852 79.3153 15.316C78.2699 16.1053 76.1366 16.5 72.9153 16.5C71.1446 16.5 69.7686 16.5533 68.7873 16.66C67.8273 16.7667 67.1126 16.98 66.6433 17.3C66.1739 17.5987 65.9179 18.0467 65.8753 18.644C65.9393 19.4547 66.3766 20.0947 67.1873 20.564C68.0193 21.0333 69.4273 21.268 71.4113 21.268ZM113.743 6.484C115.471 6.484 116.879 6.836 117.967 7.54C119.076 8.244 119.897 9.38533 120.431 10.964C120.985 12.5427 121.263 14.6547 121.263 17.3V24.5H117.295V17.396C117.295 15.3693 116.857 13.5667 115.983 11.988C115.108 10.4093 113.593 9.62 111.439 9.62C109.881 9.62 108.687 9.96133 107.855 10.644C107.044 11.3053 106.5 12.18 106.223 13.268C105.945 14.356 105.807 15.7 105.807 17.3V24.5H101.775V17.396C101.775 15.3053 101.38 13.492 100.591 11.956C99.8228 10.3987 98.3828 9.62 96.2708 9.62C94.3721 9.62 92.9854 10.004 92.1108 10.772C91.2574 11.5187 90.7241 12.5213 90.5108 13.78C90.2974 15.0387 90.1908 16.852 90.1908 19.22V24.5H86.1588V7.06H89.1348L90.1908 9.556V9.716C92.0254 7.56133 94.7454 6.484 98.3508 6.484C99.9934 6.484 101.316 6.804 102.319 7.444C103.343 8.084 104.132 9.11867 104.687 10.548C105.455 9.09733 106.575 8.06267 108.047 7.444C109.519 6.804 111.417 6.484 113.743 6.484ZM134.915 6.324C137.006 6.324 138.883 6.72933 140.547 7.54C142.233 8.35067 143.545 9.48133 144.483 10.932C145.443 12.3613 145.923 13.972 145.923 15.764C145.923 17.5347 145.443 19.1453 144.483 20.596C143.545 22.0253 142.233 23.1453 140.547 23.956C138.883 24.7667 137.006 25.172 134.915 25.172C132.91 25.172 131.022 24.7667 129.251 23.956C127.502 23.124 126.105 21.9933 125.059 20.564C124.014 19.1133 123.491 17.5133 123.491 15.764C123.491 13.9933 124.014 12.3933 125.059 10.964C126.105 9.51333 127.502 8.38267 129.251 7.572C131.001 6.74 132.889 6.324 134.915 6.324ZM134.947 22.292C136.91 22.292 138.563 21.7693 139.907 20.724C141.251 19.6573 141.923 18.004 141.923 15.764C141.923 13.524 141.251 11.8707 139.907 10.804C138.563 9.73733 136.91 9.204 134.947 9.204C133.71 9.204 132.526 9.428 131.395 9.876C130.265 10.324 129.337 11.0387 128.611 12.02C127.907 13.0013 127.555 14.2493 127.555 15.764C127.555 17.2787 127.907 18.5267 128.611 19.508C129.337 20.468 130.254 21.172 131.363 21.62C132.494 22.068 133.689 22.292 134.947 22.292ZM156.841 21.492L162.953 7.06L167.753 7.028L159.337 24.5H154.313L145.929 7.06H150.729L156.841 21.492Z" fill="black"/>
</svg>
