<?xml version="1.0" standalone="no"?>
<!DOCTYPE svg PUBLIC "-//W3C//DTD SVG 20010904//EN"
 "http://www.w3.org/TR/2001/REC-SVG-20010904/DTD/svg10.dtd">
<svg version="1.0" xmlns="http://www.w3.org/2000/svg"
 width="2522.000000pt" height="2522.000000pt" viewBox="0 0 2522.000000 2522.000000"
 preserveAspectRatio="xMidYMid meet">
<metadata>
Created by potrace 1.14, written by Peter Selinger 2001-2017
</metadata>
<g transform="translate(0.000000,2522.000000) scale(0.100000,-0.100000)"
fill="#000000" stroke="none">
<path d="M12375 17150 c-708 -33 -1416 -133 -2144 -301 -809 -188 -1477 -500
-2061 -963 -593 -470 -901 -1089 -937 -1881 l-6 -145 1031 0 1032 0 0 71 c0
161 46 370 118 538 89 204 286 439 490 581 369 259 963 464 1632 564 676 101
1588 103 2240 5 901 -136 1656 -453 2093 -878 151 -146 249 -314 283 -481 25
-124 16 -328 -19 -428 -32 -92 -75 -159 -142 -220 -127 -116 -309 -173 -708
-222 -579 -71 -1136 -86 -3587 -100 -1285 -7 -1524 -10 -1635 -24 -531 -66
-1060 -194 -1368 -332 -486 -218 -993 -640 -1221 -1016 -160 -263 -265 -594
-312 -978 -25 -200 -25 -618 0 -820 90 -744 377 -1251 911 -1609 203 -136 389
-219 785 -349 648 -214 1262 -350 1838 -407 810 -80 1743 -9 2609 200 1368
330 2396 900 2782 1544 28 46 51 80 51 75 0 -5 50 -390 112 -856 l112 -848
908 0 908 0 0 2918 c0 1830 -4 2977 -10 3077 -43 684 -223 1217 -562 1666
-315 417 -703 696 -1348 972 -847 362 -1740 567 -2770 637 -215 15 -876 20
-1105 10z m3762 -4747 c-30 -700 -308 -1329 -845 -1920 -614 -673 -1703 -985
-3352 -960 -751 12 -1262 79 -1667 218 -537 184 -883 537 -969 987 -18 95 -18
160 2 262 43 229 159 406 352 538 320 219 747 324 1532 376 396 27 726 37
1545 46 910 11 1160 21 1625 71 592 63 1081 177 1433 334 107 48 269 138 322
179 11 8 22 16 24 16 2 0 1 -66 -2 -147z"/>
</g>
</svg>
